#!OML:ASF E:\id_vita\Project 1\Capture day 1\Session 1\Male1.ASF
:FULLY-SPECIFIED
:DEGREES
382
root 44.3623 16.2376 -1.61972 1108.45 80.5639 1110.44
lowerback -2.91941 0.884472 -4.83014
upperback 0.492474 1.41314 -1.61818
thorax 2.07051 0.666255 1.10732
lowerneck -9.37211 1.98996 4.7879
upperneck 6.52886 2.17648 -1.54572
head 3.9094 1.13283 -1.23568
rclavicle -2.46462e-014 -5.06901e-015
rhumerus -20.4449 -6.26812 -87.7897
rradius 24.0465
rwrist 3.23852
rhand -23.2091 37.8818
rfingers 7.12502
rthumb 3.2412 7.92671
lclavicle -2.46462e-014 -5.06901e-015
lhumerus -62.2809 51.8407 33.6155
lradius 8.00797
lwrist -37.8756
lhand -6.84028 45.4116
lfingers 7.12502
lthumb 19.0244 74.5012
rfemur -3.79014 0.240397 11.7599
rtibia 64.6297
rfoot -1.17693 -5.3876
rtoes 20.4198
lfemur -16.3533 4.8437 -27.7056
ltibia 31.651
lfoot -12.8335 1.36444
ltoes 38.4415
383
root 44.523 16.2428 -1.63162 1110.58 80.6524 1112.63
lowerback -2.93242 0.661653 -5.18343
upperback 0.500171 1.13186 -1.62058
thorax 2.09498 0.521677 1.28978
lowerneck -9.55996 2.1788 4.71797
upperneck 7.01476 2.41284 -1.34352
head 4.12363 1.26267 -1.13892
rclavicle -2.40095e-014 2.00773e-014
rhumerus -20.6097 -8.7758 -87.2061
rradius 21.482
rwrist 6.14206
rhand -23.106 38.008
rfingers 7.12502
rthumb 3.34072 8.05439
lclavicle -2.40095e-014 2.00773e-014
lhumerus -62.1291 53.0128 33.2765
lradius 8.67145
lwrist -38.4675
lhand -8.15061 44.3834
lfingers 7.12502
lthumb 17.7639 73.592
rfemur -4.84655 -0.170911 11.546
rtibia 65.0749
rfoot -3.34542 -5.47524
rtoes 19.5932
lfemur -15.6302 4.58307 -28.1151
ltibia 31.5904
lfoot -13.3996 1.31465
ltoes 38.9914
384
root 44.6465 16.2712 -1.62112 1110.44 81.0975 1112.36
lowerback -2.94606 0.498438 -5.32413
upperback 0.474789 0.912693 -1.42861
thorax 2.08443 0.409067 1.55598
lowerneck -9.51977 2.13443 4.5485
upperneck 7.36221 2.38 -1.34667
head 4.23569 1.24567 -1.1121
rclavicle -2.78174e-014 -1.07344e-014
rhumerus -20.9008 -12.5517 -86.1642
rradius 19.1975
rwrist 10.0989
rhand -22.9727 38.0406
rfingers 7.12502
rthumb 3.46942 8.08905
lclavicle -2.78174e-014 -1.07344e-014
lhumerus -61.5171 54.1116 33.4268
lradius 9.47465
lwrist -39.315
lhand -8.60034 43.281
lfingers 7.12502
lthumb 17.3311 72.5282
rfemur -6.66746 -0.164137 12.3464
rtibia 65.4122
rfoot -5.26427 -5.80499
rtoes 23.2795
lfemur -15.3673 4.41712 -27.7703
ltibia 31.6582
lfoot -13.7353 1.00136
ltoes 39.1486
385
root 44.794 16.2766 -1.65344 1117.02 81.0937 1118.51
lowerback -3.72649 0.326785 -5.70099
upperback 0.49136 0.773429 -1.76517
thorax 2.55084 0.328767 1.42117
lowerneck -9.64135 2.03881 4.34512
upperneck 7.61233 2.25352 -1.1248
head 4.33764 1.19105 -1.00813
rclavicle 3.08737e-015 -1.17283e-014
rhumerus -21.247 -16.9374 -84.8344
rradius 17.0494
rwrist 14.4707
rhand -22.6951 37.4977
rfingers 7.12502
rthumb 3.73756 7.55074
lclavicle 3.08737e-015 -1.17283e-014
lhumerus -60.491 55.0688 33.9718
lradius 10.3862
lwrist -40.4964
lhand -8.35823 41.9698
lfingers 7.12502
lthumb 17.5641 71.1964
rfemur -8.43899 -1.02832 11.2145
rtibia 65.5592
rfoot -7.59819 -5.06043
rtoes 22
lfemur -15.1658 4.06057 -28.9655
ltibia 31.5879
lfoot -14.1968 0.766694
ltoes 39.3111
386
root 44.9221 16.281 -1.65071 1113.06 81.9821 1114.99
lowerback -2.99852 0.241822 -5.06483
upperback 0.55147 0.564972 -1.36876
thorax 2.21726 0.233662 1.45771
lowerneck -9.77029 2.00911 4.2207
upperneck 8.4581 2.23558 -1.18729
head 4.18649 1.17546 -0.902913
rclavicle 6.52262e-017 1.73937e-014
rhumerus -22.153 -21.228 -83.0382
rradius 14.9457
rwrist 18.1417
rhand -22.5086 37.5303
rfingers 7.12502
rthumb 3.91768 7.58652
lclavicle 6.52262e-017 1.73937e-014
lhumerus -53.0846 52.8476 42.5225
lradius 10.9766
lwrist -35.9772
lhand -8.86022 41.7045
lfingers 7.12502
lthumb 17.081 70.9736
rfemur -9.22826 -0.846163 12.8391
rtibia 65.5573
rfoot -9.43272 -5.51613
rtoes 21.3946
lfemur -14.2012 4.07412 -27.8563
ltibia 31.6357
lfoot -14.4581 0.363137
ltoes 39.0074
387
root 45.0547 16.269 -1.66588 1120.09 81.8284 1121.78
lowerback -3.15793 0.0358218 -5.83647
upperback 0.411864 0.340749 -1.67158
thorax 2.1762 0.121046 1.56628
lowerneck -9.97642 2.03165 4.55014
upperneck 8.99973 2.24042 -1.44813
head 4.39378 1.17895 -1.03247
rclavicle 1.76732e-015 1.2921e-014
rhumerus -23.5741 -26.5046 -80.8071
rradius 13.2385
rwrist 23.372
rhand -22.5297 37.3667
rfingers 7.12502
rthumb 3.89727 7.42263
lclavicle 1.76732e-015 1.2921e-014
lhumerus -46.7119 50.2227 49.48
lradius 11.4835
lwrist -31.6215
lhand -9.38261 41.5905
lfingers 7.12502
lthumb 16.5781 70.9024
rfemur -10.8676 -1.30254 11.9769
rtibia 65.3757
rfoot -10.7724 -5.46224
rtoes 19.1891
lfemur -14.0747 3.9277 -28.9549
ltibia 31.8367
lfoot -14.7234 0.155802
ltoes 38.289
388
root 45.1901 16.2588 -1.68056 1124.73 81.893 1126.05
lowerback -3.52479 -0.168382 -6.16504
upperback 0.288191 0.113408 -1.81184
thorax 2.27123 0.00654815 1.59386
lowerneck -10.1127 1.82221 4.26318
upperneck 9.1443 1.96072 -1.13497
head 4.44636 1.05122 -0.907293
rclavicle 1.0694e-014 2.49475e-014
rhumerus -25.5213 -32.8375 -77.5289
rradius 11.5571
rwrist 29.9901
rhand -22.5766 37.082
rfingers 7.12502
rthumb 3.85193 7.13706
lclavicle 1.0694e-014 2.49475e-014
lhumerus -40.6407 45.9111 56.8337
lradius 12.9304
lwrist -25.7282
lhand -9.46007 42.1737
lfingers 7.12502
lthumb 16.5035 71.4918
rfemur -12.588 -1.79504 11.6375
rtibia 65.0335
rfoot -12.1347 -5.39824
rtoes 18.3764
lfemur -14.143 3.75837 -29.5573
ltibia 32.2235
lfoot -15.0212 -0.103158
ltoes 38.0609
389
root 45.3391 16.254 -1.67282 1121.59 82.5607 1123.07
lowerback -3.45073 -0.29281 -5.785
upperback 0.367138 -0.0872352 -1.45757
thorax 2.32459 -0.0973395 1.73611
lowerneck -9.92725 1.91608 4.41233
upperneck 9.12215 2.11674 -1.52318
head 4.41864 1.11049 -1.04196
rclavicle 1.98785e-015 -1.99282e-014
rhumerus -29.0998 -41.2698 -71.9902
rradius 10.0397
rwrist 39.1222
rhand -22.7307 37.247
rfingers 7.12502
rthumb 3.70314 7.29943
lclavicle 1.98785e-015 -1.99282e-014
lhumerus -36.3753 41.1306 62.7674
lradius 15.275
lwrist -19.6687
lhand -9.53168 42.8832
lfingers 7.12502
lthumb 16.4346 72.207
rfemur -13.5447 -1.52195 13.0063
rtibia 64.3709
rfoot -13.4532 -5.99089
rtoes 18.2149
lfemur -13.5839 3.8751 -28.6419
ltibia 32.6367
lfoot -15.4702 -0.515174
ltoes 38.0623
390
root 45.4599 16.2373 -1.68942 1128.05 82.5703 1129.18
lowerback -3.84502 -0.520629 -6.26083
upperback 0.469139 -0.323845 -1.62284
thorax 2.67257 -0.229052 1.81493
lowerneck -10.2354 1.92909 4.41495
upperneck 9.14177 2.12217 -1.56296
head 4.47622 1.10913 -1.05185
rclavicle 6.17785e-015 -1.11816e-014
rhumerus -28.5137 -41.4147 -72.3891
rradius 8.04744
rwrist 38.5786
rhand -23.744 35.9291
rfingers 7.12502
rthumb 2.72462 5.96677
lclavicle 6.17785e-015 -1.11816e-014
lhumerus -33.0106 37.2828 67.0823
lradius 17.731
lwrist -15.0343
lhand -9.76358 43.2305
lfingers 7.12502
lthumb 16.2113 72.5726
rfemur -15.2747 -2.12185 12.4744
rtibia 63.6727
rfoot -14.7859 -5.84011
rtoes 16.428
lfemur -13.7021 3.63039 -29.386
ltibia 33.1152
lfoot -15.9303 -0.974877
ltoes 37.8581
391
root 45.5912 16.2238 -1.69365 1129.6 82.997 1130.74
lowerback -3.32542 -0.563775 -6.13511
upperback 0.0399421 -0.453285 -1.52986
thorax 1.94542 -0.265714 1.83966
lowerneck -9.69258 1.83803 4.10456
upperneck 9.38539 2.03212 -1.16884
head 4.45144 1.08375 -0.889819
rclavicle 1.53484e-014 1.2275e-014
rhumerus -30.5116 -41.0923 -70.9559
rradius 7.3133
rwrist 37.9285
rhand -23.9968 34.559
rfingers 7.12502
rthumb 2.48044 4.59368
lclavicle 1.53484e-014 1.2275e-014
lhumerus -31.4961 34.2918 69.3656
lradius 19.458
lwrist -12.0582
lhand -10.2128 43.0546
lfingers 7.12502
lthumb 15.7787 72.4315
rfemur -16.4761 -2.26572 12.9489
rtibia 62.7096
rfoot -16.1994 -6.25304
rtoes 12.4514
lfemur -13.3958 3.49265 -29.1985
ltibia 33.6675
lfoot -16.5409 -1.33887
ltoes 37.517
392
root 45.722 16.202 -1.70293 1131.57 82.9489 1132.71
lowerback -3.5805 -0.588077 -6.27593
upperback 0.349197 -0.44054 -1.61721
thorax 2.40865 -0.277949 1.82479
lowerneck -10.0351 1.80598 4.08593
upperneck 9.1521 1.97236 -1.17016
head 4.43457 1.04894 -0.889334
rclavicle 3.92134e-015 4.57205e-015
rhumerus -30.3242 -41.2614 -71.0517
rradius 5.89558
rwrist 37.2595
rhand -24.4368 33.5085
rfingers 7.12502
rthumb 2.05554 3.53871
lclavicle 3.92134e-015 4.57205e-015
lhumerus -28.4661 33.2045 71.3445
lradius 19.7969
lwrist -10.7008
lhand -10.9374 42.0043
lfingers 7.12502
lthumb 15.0808 71.435
rfemur -17.6302 -2.16286 12.9816
rtibia 61.6282
rfoot -17.242 -6.41754
rtoes 10.6679
lfemur -13.0624 3.5587 -29.4249
ltibia 34.0904
lfoot -17.1358 -1.59125
ltoes 37.7
